# xmcd
#
# Track frame offsets:
#	150
#	26312
#	46078
#	70048
#	161835
#	187467
#	193064
#	222671
#	271211
#	276336
#	288290
#	308561
#
# Disc length: 4393 seconds
#
# Revision: 1
# Processed by: cddbd v1.5.2PL0 Copyright (c) Steve Scherf et al.
# Submitted via: audiograbber 1.83.01
#
DISCID=b711270c
DTITLE=Grateful Dead - 71-12-15 Hill Auditorium, Ann Arbor MI
DYEAR=1900
DGENRE=
TTITLE0=Brokedown Palace
TTITLE1=El Paso
TTITLE2=Casey Jones
TTITLE3=Dark Star
TTITLE4=Deal
TTITLE5=Stars and Stripes Forever Tuning
TTITLE6=Sugar Magnolia
TTITLE7=Turn On Your Lovelight
TTITLE8=King Bee
TTITLE9=Mannish Boy
TTITLE10=Turn On Your Lovelight
TTITLE11=One More Saturday Night
EXTD=
EXTT0=
EXTT1=
EXTT2=
EXTT3=
EXTT4=
EXTT5=
EXTT6=
EXTT7=
EXTT8=
EXTT9=
EXTT10=
EXTT11=
PLAYORDER=
